<svg width="120" height="17" viewBox="0 0 120 17" fill="none" xmlns="http://www.w3.org/2000/svg">
<path d="M8.24022 5.25125L9.51726 1.72922L10.7943 5.25125C11.1076 6.11542 11.9285 6.69093 12.8477 6.69093H16.5369L13.7301 8.83761C13.0073 9.39039 12.703 10.3333 12.9661 11.2043L14.0211 14.6959L10.7063 12.5448C9.98306 12.0754 9.05146 12.0754 8.32826 12.5448L5.01338 14.6959L6.06837 11.2043C6.33155 10.3333 6.02719 9.39039 5.30444 8.83761L2.49765 6.69093H6.18682C7.10604 6.69093 7.92689 6.11542 8.24022 5.25125Z" fill="#DA2535" stroke="#DA2535" stroke-width="2.36842"/>
<path d="M33.4817 5.25125L34.7587 1.72922L36.0357 5.25125C36.3491 6.11542 37.1699 6.69093 38.0891 6.69093H41.7783L38.9715 8.83761C38.2488 9.39039 37.9444 10.3333 38.2076 11.2043L39.2626 14.6959L35.9477 12.5448C35.2245 12.0754 34.2929 12.0754 33.5697 12.5448L30.2548 14.6959L31.3098 11.2043C31.573 10.3333 31.2686 9.39039 30.5459 8.83761L27.7391 6.69093H31.4283C32.3475 6.69093 33.1683 6.11542 33.4817 5.25125Z" fill="#DA2535" stroke="#DA2535" stroke-width="2.36842"/>
<path d="M58.7229 5.25125L59.9999 1.72922L61.277 5.25125C61.5903 6.11542 62.4111 6.69093 63.3304 6.69093H67.0195L64.2127 8.83761C63.49 9.39039 63.1856 10.3333 63.4488 11.2043L64.5038 14.6959L61.1889 12.5448C60.4657 12.0754 59.5341 12.0754 58.8109 12.5448L55.496 14.6959L56.551 11.2043C56.8142 10.3333 56.5099 9.39039 55.7871 8.83761L52.9803 6.69093H56.6695C57.5887 6.69093 58.4096 6.11542 58.7229 5.25125Z" fill="#DA2535" stroke="#DA2535" stroke-width="2.36842"/>
<path d="M83.9643 5.25125L85.2414 1.72922L86.5184 5.25125C86.8317 6.11542 87.6526 6.69093 88.5718 6.69093H92.261L89.4542 8.83761C88.7314 9.39039 88.4271 10.3333 88.6903 11.2043L89.7453 14.6959L86.4304 12.5448C85.7072 12.0754 84.7756 12.0754 84.0524 12.5448L80.7375 14.6959L81.7925 11.2043C82.0557 10.3333 81.7513 9.39039 81.0286 8.83761L78.2218 6.69093H81.9109C82.8302 6.69093 83.651 6.11542 83.9643 5.25125Z" fill="#DA2535" stroke="#DA2535" stroke-width="2.36842"/>
<path d="M109.206 5.25125L110.483 1.72922L111.76 5.25125C112.073 6.11542 112.894 6.69093 113.813 6.69093H117.502L114.696 8.83761C113.973 9.39039 113.669 10.3333 113.932 11.2043L114.987 14.6959L111.672 12.5448C110.949 12.0754 110.017 12.0754 109.294 12.5448L105.979 14.6959L107.034 11.2043C107.297 10.3333 106.993 9.39039 106.27 8.83761L103.463 6.69093H107.152C108.072 6.69093 108.892 6.11542 109.206 5.25125Z" fill="#DA2535" stroke="#DA2535" stroke-width="2.36842"/>
</svg>
